#!OML:ASF H:\Dans Jumps\Project 1\Capture day 1\Session 1\subject.ASF
:FULLY-SPECIFIED
:DEGREES
684
root 0.359743 17.7473 6.4858 7.18183 -1.30826 -1.42994
lowerback -3.95889 0.250743 0.182476
upperback 1.28772 0.282828 1.23277
thorax 3.54075 0.130577 1.18696
lowerneck -10.2524 -0.42372 -2.27803
upperneck 14.5811 -0.362492 1.04577
head 6.11367 -0.218922 0.67628
rclavicle -5.1684e-015 -1.72943e-014
rhumerus -27.9182 -14.3782 -80.1012
rradius 26.644
rwrist 31.5023
rhand -19.7271 -26.2133
rfingers 7.12502
rthumb 6.60326 -56.0903
lclavicle -5.1684e-015 -1.72943e-014
lhumerus -26.6136 1.31612 86.4682
lradius 21.3416
lwrist 7.32773
lhand -25.8882 -5.51408
lfingers 7.12502
lthumb 0.653719 24.4647
rfemur -12.9289 -3.05577 20.3
rtibia 19.3764
rfoot -12.3397 2.95666
rtoes 17.8943
lfemur -10.4113 6.29727 -17.5609
ltibia 15.8995
lfoot -8.37915 8.32802
ltoes 3.34354
685
root 0.361602 17.7473 6.48558 7.17696 -1.31277 -1.42744
lowerback -3.97416 0.250053 0.186285
upperback 1.28176 0.281664 1.23181
thorax 3.54325 0.1301 1.18383
lowerneck -10.2725 -0.425703 -2.28165
upperneck 14.5757 -0.365136 1.0523
head 6.11549 -0.219824 0.678706
rclavicle -2.48481e-015 6.16232e-015
rhumerus -27.9149 -14.3681 -80.1121
rradius 26.6543
rwrist 31.4914
rhand -19.727 -26.2046
rfingers 7.12502
rthumb 6.60339 -56.0817
lclavicle -2.48481e-015 6.16232e-015
lhumerus -26.6173 1.30104 86.5054
lradius 21.3481
lwrist 7.35399
lhand -25.8782 -5.54732
lfingers 7.12502
lthumb 0.663413 24.4314
rfemur -12.9219 -3.0529 20.29
rtibia 19.37
rfoot -12.3336 2.95641
rtoes 17.9023
lfemur -10.4076 6.30994 -17.5709
ltibia 15.9013
lfoot -8.37377 8.32011
ltoes 3.29765
686
root 0.363322 17.7472 6.4852 7.17304 -1.31717 -1.43903
lowerback -3.98739 0.250825 0.202466
upperback 1.27412 0.281671 1.23527
thorax 3.54288 0.130438 1.17835
lowerneck -10.3051 -0.426016 -2.27205
upperneck 14.5821 -0.365201 1.04472
head 6.12312 -0.219877 0.674711
rclavicle -5.2181e-016 5.36719e-015
rhumerus -27.9139 -14.3615 -80.1198
rradius 26.6626
rwrist 31.4866
rhand -19.7206 -26.1961
rfingers 7.12502
rthumb 6.60954 -56.073
lclavicle -5.2181e-016 5.36719e-015
lhumerus -26.6274 1.28251 86.5462
lradius 21.3571
lwrist 7.37453
lhand -25.867 -5.57923
lfingers 7.12502
lthumb 0.674218 24.3994
rfemur -12.9144 -3.03586 20.2961
rtibia 19.3595
rfoot -12.3244 2.943
rtoes 17.8999
lfemur -10.4082 6.32292 -17.5643
ltibia 15.908
lfoot -8.37189 8.31422
ltoes 3.26624
687
root 0.365078 17.747 6.48514 7.16618 -1.32217 -1.45097
lowerback -4.0002 0.252263 0.219226
upperback 1.26633 0.282535 1.23885
thorax 3.54211 0.131215 1.17273
lowerneck -10.3349 -0.426441 -2.25378
upperneck 14.5894 -0.365251 1.02651
head 6.1305 -0.220289 0.665926
rclavicle 1.04362e-015 9.93923e-016
rhumerus -27.9158 -14.3542 -80.1256
rradius 26.6696
rwrist 31.4796
rhand -19.7102 -26.1907
rfingers 7.12502
rthumb 6.61962 -56.0672
lclavicle 1.04362e-015 9.93923e-016
lhumerus -26.6425 1.25828 86.5907
lradius 21.3663
lwrist 7.39151
lhand -25.8549 -5.59497
lfingers 7.12502
lthumb 0.685844 24.3837
rfemur -12.9008 -3.01932 20.3022
rtibia 19.3462
rfoot -12.3159 2.93001
rtoes 17.8876
lfemur -10.4058 6.33932 -17.5572
ltibia 15.9177
lfoot -8.37139 8.30603
ltoes 3.22414
688
root 0.366857 17.7468 6.48528 7.15701 -1.32663 -1.46395
lowerback -4.01341 0.254151 0.23681
upperback 1.25921 0.283924 1.24284
thorax 3.54224 0.132262 1.16712
lowerneck -10.358 -0.42938 -2.23062
upperneck 14.5951 -0.368336 0.999767
head 6.13626 -0.222585 0.653374
rclavicle 1.56543e-015 6.16232e-015
rhumerus -27.921 -14.3449 -80.1303
rradius 26.6795
rwrist 31.4679
rhand -19.6955 -26.1894
rfingers 7.12502
rthumb 6.63381 -56.0655
lclavicle 1.56543e-015 6.16232e-015
lhumerus -26.6597 1.23834 86.6363
lradius 21.374
lwrist 7.39487
lhand -25.8419 -5.59437
lfingers 7.12502
lthumb 0.698404 24.3842
rfemur -12.8831 -3.00393 20.3092
rtibia 19.3317
rfoot -12.3086 2.91787
rtoes 17.8728
lfemur -10.4001 6.35782 -17.5486
ltibia 15.9271
lfoot -8.37364 8.29558
ltoes 3.19071
